<svg width="17" height="16" viewBox="0 0 17 16" fill="none" xmlns="http://www.w3.org/2000/svg">
<path fill-rule="evenodd" clip-rule="evenodd" d="M16.3747 5.78782L11.0497 5.01375L8.66925 0.186112C8.60149 0.0708045 8.47778 0 8.34408 0C8.21038 0 8.08668 0.0708045 8.01891 0.186112L5.63734 5.01267L0.310905 5.78782C0.174273 5.80755 0.0606819 5.90317 0.0178827 6.03448C-0.0249165 6.1658 0.0104975 6.31003 0.109237 6.40656L3.96342 10.1647L3.05374 15.471C3.03052 15.6071 3.08644 15.7445 3.19801 15.8257C3.30958 15.9068 3.4575 15.9176 3.57967 15.8535L8.34281 13.3484L13.106 15.8524C13.2281 15.9165 13.376 15.9057 13.4876 15.8246C13.5992 15.7434 13.6551 15.606 13.6319 15.47L12.7222 10.1647L16.5764 6.40656C16.6751 6.31008 16.7106 6.16591 16.6678 6.03462C16.6251 5.90333 16.5116 5.80766 16.3751 5.78782H16.3747Z" fill="#F5A623"/>
</svg>
