<svg width="24" height="24" viewBox="0 0 24 24" fill="none" xmlns="http://www.w3.org/2000/svg">
<path d="M15.4668 11.7335V8.53353H12.2668V6.4002H15.4668V3.2002H17.6001V6.4002H20.8001V8.53353H17.6001V11.7335H15.4668ZM19.6801 22.4002C17.3868 22.4002 15.151 21.8889 12.9729 20.8663C10.7948 19.8438 8.86588 18.4926 7.18623 16.813C5.50659 15.1334 4.15548 13.2045 3.1329 11.0263C2.11032 8.8482 1.59939 6.61282 1.6001 4.3202C1.6001 4.0002 1.70677 3.73353 1.9201 3.5202C2.13343 3.30686 2.4001 3.2002 2.7201 3.2002H7.0401C7.28899 3.2002 7.51121 3.2802 7.70677 3.4402C7.90232 3.6002 8.01788 3.80464 8.05343 4.05353L8.74677 7.78686C8.78232 8.03575 8.7777 8.2626 8.7329 8.4674C8.6881 8.6722 8.58605 8.85424 8.42676 9.01353L5.86677 11.6269C6.61343 12.9069 7.54677 14.1069 8.66677 15.2269C9.78677 16.3469 11.0223 17.3158 12.3734 18.1335L14.8801 15.6269C15.0401 15.4669 15.2492 15.347 15.5073 15.2674C15.7654 15.1878 16.0186 15.1654 16.2668 15.2002L19.9468 15.9469C20.1957 16.0002 20.4001 16.1204 20.5601 16.3074C20.7201 16.4944 20.8001 16.712 20.8001 16.9602V21.2802C20.8001 21.6002 20.6934 21.8669 20.4801 22.0802C20.2668 22.2935 20.0001 22.4002 19.6801 22.4002Z" fill="#28B781"/>
</svg>
